<?xml version="1.0" standalone="no"?>
<!DOCTYPE svg PUBLIC "-//W3C//DTD SVG 20010904//EN"
 "http://www.w3.org/TR/2001/REC-SVG-20010904/DTD/svg10.dtd">
<svg version="1.0" xmlns="http://www.w3.org/2000/svg"
 width="450.000000pt" height="450.000000pt" viewBox="0 0 450.000000 450.000000"
 preserveAspectRatio="xMidYMid meet">
<metadata>
Created by potrace 1.14, written by Peter Selinger 2001-2017
</metadata>
<g transform="translate(0.000000,450.000000) scale(0.100000,-0.100000)"
fill="#000000" stroke="none">
<path d="M1995 4184 c-350 -47 -697 -195 -969 -414 -94 -76 -268 -256 -337
-350 -252 -341 -389 -753 -389 -1170 0 -443 156 -882 437 -1230 71 -88 233
-246 318 -311 482 -369 1097 -497 1681 -349 414 105 810 367 1066 707 282 374
412 790 395 1258 -11 308 -76 550 -222 834 -294 568 -862 956 -1510 1031 -121
13 -348 11 -470 -6z m402 -454 c113 -56 177 -160 178 -290 0 -65 -4 -84 -33
-142 -29 -60 -99 -138 -124 -138 -18 0 -6 34 22 66 53 61 74 112 74 184 1 230
-266 351 -439 199 -107 -95 -115 -272 -17 -378 30 -31 43 -71 24 -71 -24 0
-95 78 -124 138 -29 58 -33 76 -32 142 2 247 248 399 471 290z m-23 -436 c23
-23 23 -225 0 -248 -8 -9 -19 -16 -24 -16 -4 0 -6 -9 -3 -20 3 -11 -2 -31 -11
-45 -15 -23 -23 -25 -86 -25 -81 0 -105 16 -96 62 3 15 1 28 -4 28 -5 0 -16 7
-24 16 -13 12 -16 38 -16 121 0 143 0 143 141 143 84 0 111 -3 123 -16z m49
-390 c40 -8 119 -38 177 -66 93 -45 115 -61 200 -147 81 -81 103 -111 143
-191 70 -140 91 -234 84 -384 -2 -67 -12 -148 -21 -181 -40 -146 -147 -308
-264 -400 -82 -66 -145 -99 -252 -137 -90 -31 -102 -32 -240 -32 -138 0 -150
1 -240 32 -333 115 -540 400 -540 741 0 228 76 406 242 568 101 98 205 157
343 193 90 24 268 26 368 4z m-765 -57 c23 -23 42 -52 42 -63 0 -11 5 -25 12
-32 10 -10 4 -20 -24 -49 -35 -35 -38 -36 -56 -20 -10 9 -22 14 -26 10 -7 -8
-106 86 -106 101 0 17 83 96 100 96 9 0 35 -19 58 -43z m1300 0 c23 -23 42
-47 42 -53 0 -15 -99 -109 -106 -101 -4 4 -16 -1 -26 -10 -18 -16 -21 -15 -55
19 -32 32 -35 39 -23 53 8 9 14 25 15 36 2 25 73 99 95 99 9 0 35 -19 58 -43z
m-1147 -1560 c66 -34 99 -104 99 -211 0 -91 -20 -146 -65 -189 l-28 -25 51
-58 c29 -32 52 -60 52 -63 0 -4 -34 -5 -75 -3 l-74 4 -42 49 c-26 31 -49 49
-62 49 -41 0 -96 21 -128 47 -49 41 -69 95 -69 186 0 161 72 236 226 237 55 0
81 -5 115 -23z m309 -142 c0 -152 1 -156 25 -180 30 -30 54 -31 89 -4 l26 20
0 160 0 159 65 0 65 0 0 -142 c-1 -209 -15 -251 -101 -296 -37 -20 -55 -23
-117 -19 -77 4 -107 19 -145 68 -29 39 -37 92 -37 247 l0 142 65 0 65 0 0
-155z m488 -72 l-3 -228 -60 0 -60 0 -3 228 -2 227 65 0 65 0 -2 -227z m422
192 c0 -27 -19 -62 -95 -169 -52 -74 -95 -138 -95 -141 0 -3 43 -5 95 -5 l95
0 0 -55 0 -56 -175 1 -175 2 1 46 c0 43 8 58 93 177 l94 130 -94 3 -94 3 0 49
0 50 175 0 175 0 0 -35z"/>
<path d="M2174 2789 c-154 -20 -274 -79 -385 -189 -134 -134 -196 -297 -187
-494 8 -167 66 -301 184 -421 352 -360 970 -194 1095 292 24 94 25 232 3 322
-77 314 -393 532 -710 490z m274 -45 c317 -106 495 -427 420 -754 -6 -25 -28
-83 -50 -129 -75 -158 -240 -292 -413 -336 -77 -20 -230 -19 -309 1 -223 57
-406 240 -462 464 -20 79 -22 215 -5 290 59 250 281 454 536 494 68 10 207 -4
283 -30z"/>
<path d="M2100 2744 c-167 -44 -331 -176 -404 -324 -180 -370 31 -801 434
-886 263 -56 554 86 674 329 206 418 -94 900 -559 896 -49 0 -115 -7 -145 -15z
m77 -10 c-3 -3 -12 -4 -19 -1 -8 3 -5 6 6 6 11 1 17 -2 13 -5z m91 -22 c2 -14
-2 -22 -12 -22 -19 0 -29 17 -22 36 8 22 30 12 34 -14z m-280 -80 c-5 -25 -38
-28 -45 -3 -3 11 -10 18 -16 14 -6 -3 -7 -1 -3 6 4 6 12 9 17 6 5 -4 9 -1 9 5
0 8 6 8 21 0 11 -6 19 -19 17 -28z m572 23 c5 3 12 0 16 -6 4 -8 3 -9 -4 -5
-7 4 -12 1 -12 -8 0 -24 -20 -30 -38 -12 -16 16 -16 18 3 32 12 9 21 11 23 4
2 -5 8 -8 12 -5z m115 -85 c27 -27 47 -50 44 -50 -3 0 -27 23 -54 50 -27 28
-47 50 -44 50 3 0 27 -22 54 -50z m-805 37 c0 -2 -19 -21 -42 -42 l-43 -40 40
43 c36 39 45 47 45 39z m-90 -101 c0 -2 -8 -10 -17 -17 -16 -13 -17 -12 -4 4
13 16 21 21 21 13z m852 -72 l64 -66 -275 -280 -275 -279 -173 173 -173 173
68 68 67 68 105 -106 104 -106 206 209 c113 115 208 210 211 210 4 1 36 -28
71 -64z m138 17 c12 -23 -12 -54 -35 -45 -22 9 -18 35 5 41 11 3 17 9 14 14
-3 5 -3 9 0 9 3 0 10 -9 16 -19z m-993 -17 c3 -9 0 -20 -8 -24 -15 -10 -39 6
-39 26 0 19 39 18 47 -2z m1070 -206 c-3 -8 -6 -5 -6 6 -1 11 2 17 5 13 3 -3
4 -12 1 -19z m-1190 -10 c-3 -8 -6 -5 -6 6 -1 11 2 17 5 13 3 -3 4 -12 1 -19z
m41 -76 c3 -16 -2 -22 -17 -22 -26 0 -36 17 -20 36 16 19 33 13 37 -14z m1148
-11 c-10 -16 -36 -13 -43 5 -8 22 18 37 36 20 7 -8 10 -19 7 -25z m-1071 -275
c0 -22 -14 -29 -34 -17 -19 12 -6 43 16 39 10 -2 18 -12 18 -22z m993 -1 c2
-15 -3 -21 -17 -22 -24 -2 -35 12 -27 33 8 22 40 13 44 -11z m-987 -82 c13
-16 12 -17 -3 -4 -10 7 -18 15 -18 17 0 8 8 3 21 -13z m959 13 c0 -2 -8 -10
-17 -17 -16 -13 -17 -12 -4 4 13 16 21 21 21 13z m-30 -39 c0 -2 -15 -16 -32
-33 l-33 -29 29 33 c28 30 36 37 36 29z m-880 -32 c13 -14 21 -25 18 -25 -2 0
-15 11 -28 25 -13 14 -21 25 -18 25 2 0 15 -11 28 -25z m61 -52 c13 -16 12
-17 -3 -4 -10 7 -18 15 -18 17 0 8 8 3 21 -13z m739 13 c0 -2 -8 -10 -17 -17
-16 -13 -17 -12 -4 4 13 16 21 21 21 13z m-643 -22 c6 -16 -11 -34 -33 -34 -9
0 -12 34 -5 48 5 9 33 -1 38 -14z m571 -12 c2 -14 -2 -22 -11 -22 -19 0 -40
26 -32 40 11 18 40 6 43 -18z m-290 -74 c-2 -13 -10 -23 -18 -23 -8 0 -16 10
-18 23 -3 17 2 22 18 22 16 0 21 -5 18 -22z"/>
<path d="M1647 1199 c-45 -26 -62 -145 -29 -209 21 -43 66 -59 108 -39 43 21
55 54 52 138 -3 66 -6 76 -31 97 -30 25 -70 30 -100 13z"/>
</g>
</svg>
